<svg xmlns="http://www.w3.org/2000/svg" width="1200" height="760" viewBox="0 0 1200 760">
<rect width="1200" height="760" fill="#111111"/>
<rect x="18" y="18" width="1164" height="724" rx="8" fill="#171717" stroke="#3a3a3a"/>
<text x="1080" y="82" fill="#e52b2f" font-family="Arial, sans-serif" font-size="38" font-weight="700" text-anchor="end">VIDEO</text>
<text x="1080" y="132" fill="#ffffff" font-family="Arial, sans-serif" font-size="42" font-weight="700" text-anchor="end">DOWNLOADER</text>
<text x="1080" y="166" fill="#bdbdbd" font-family="Arial, sans-serif" font-size="16" text-anchor="end">حمّل الفيديو أو استخرج الصوت بسرعة وبلا تعقيد</text>
<rect x="38" y="205" width="1124" height="190" fill="#1c1c1c" stroke="#444"/>
<text x="70" y="238" fill="#ffffff" font-family="Arial, sans-serif" font-size="18" font-weight="700">أضف الروابط</text>
<rect x="70" y="255" width="1060" height="86" fill="#292929" stroke="#454545"/>
<text x="94" y="302" fill="#aaa" font-family="Arial, sans-serif" font-size="16">الصق الروابط هنا، رابط في كل سطر</text>
<rect x="860" y="356" width="140" height="40" fill="#e52b2f"/>
<text x="930" y="382" fill="#fff" font-family="Arial, sans-serif" font-size="15" text-anchor="middle">لصق من الحافظة</text>
<rect x="710" y="356" width="135" height="40" fill="#303030"/>
<text x="778" y="382" fill="#fff" font-family="Arial, sans-serif" font-size="15" text-anchor="middle">إزالة المكرر</text>
<rect x="570" y="356" width="125" height="40" fill="#303030"/>
<text x="632" y="382" fill="#fff" font-family="Arial, sans-serif" font-size="15" text-anchor="middle">مسح</text>
<rect x="38" y="420" width="1124" height="225" fill="#1c1c1c" stroke="#444"/>
<text x="70" y="454" fill="#ffffff" font-family="Arial, sans-serif" font-size="18" font-weight="700">خصائص التنزيل</text>
<text x="1030" y="485" fill="#bbb" font-family="Arial, sans-serif" font-size="15" text-anchor="end">نوع الملف</text>
<rect x="760" y="497" width="300" height="42" fill="#292929" stroke="#454545"/>
<text x="790" y="524" fill="#fff" font-family="Arial, sans-serif" font-size="15">فيديو MP4</text>
<text x="720" y="485" fill="#bbb" font-family="Arial, sans-serif" font-size="15" text-anchor="end">الجودة</text>
<rect x="430" y="497" width="260" height="42" fill="#292929" stroke="#454545"/>
<text x="460" y="524" fill="#fff" font-family="Arial, sans-serif" font-size="15">الأفضل</text>
<text x="1030" y="565" fill="#bbb" font-family="Arial, sans-serif" font-size="15" text-anchor="end">مكان الحفظ</text>
<rect x="110" y="577" width="950" height="42" fill="#292929" stroke="#454545"/>
<text x="135" y="604" fill="#aaa" font-family="Arial, sans-serif" font-size="15">C:\Users\karim\Downloads</text>
<rect x="38" y="665" width="190" height="52" fill="#2a2a2a"/>
<text x="133" y="698" fill="#fff" font-family="Arial, sans-serif" font-size="16" text-anchor="middle">السجل</text>
<rect x="248" y="665" width="190" height="52" fill="#2a2a2a"/>
<text x="343" y="698" fill="#fff" font-family="Arial, sans-serif" font-size="16" text-anchor="middle">فتح المجلد</text>
<rect x="458" y="665" width="704" height="52" fill="#e52b2f"/>
<text x="810" y="698" fill="#fff" font-family="Arial, sans-serif" font-size="18" font-weight="700" text-anchor="middle">ابدأ التحميل</text>
</svg>
